# xmcd
#
# Track frame offsets:
#	150
#	15096
#	28615
#	42402
#	60985
#	75685
#	88290
#	101169
#	114022
#	132311
#	147831
#	164743
#	184486
#	202068
#	219394
#	236042
#	251275
#	267154
#	284314
#
# Disc length: 3986 seconds
#
# Revision: 0
# Processed by: cddbd v1.5.2PL0 Copyright (c) Steve Scherf et al.
# Submitted via: EasyCDDAExtractor 5.0.5.1
#
DISCID=0e0f9013
DTITLE=Various Artist - HOTT COUNTRY # 127
DYEAR=1900
DGENRE=Country
TTITLE0=George Canyon - DRINKIN' THINKIN'
TTITLE1=Toby Keith - CRASH HERE TONIGHT
TTITLE2=Adam Gregory - SHE'S SO CALIFORNIA
TTITLE3=Keith Urban - Once In A Lifetime (edit)
TTITLE4=Chris Young - DRINKIN' ME LONELY
TTITLE5=Vince Gill - The Reason Why
TTITLE6=Aaron Tippen - READY TO ROCK
TTITLE7=Aaron Lines - Seeing Things
TTITLE8=Rascal Flatts - MY WISH
TTITLE9=Eric Church - TWO PINK LINES
TTITLE10=Randy Rogers Band - KISS ME IN THE DARK
TTITLE11=Brad Paisley - SHE'S EVERYTHING
TTITLE12=Steve Fox - LITTLE FOOTPRINTS
TTITLE13=Joe Nichols - I'LL WAIT FOR YOU
TTITLE14=Katrina Elam - LOVE IS
TTITLE15=Gill Grand - NEVER SAW HER LEAVIN' COMIN'
TTITLE16=Sugarland - WANT TO
TTITLE17=Lost Trailers - WHY ME
TTITLE18=Waylon Jennings - LUCHENBACK TEXAS
EXTD=September 2006\n
EXTT0=
EXTT1=
EXTT2=
EXTT3=
EXTT4=
EXTT5=
EXTT6=
EXTT7=
EXTT8=
EXTT9=
EXTT10=
EXTT11=
EXTT12=
EXTT13=
EXTT14=
EXTT15=
EXTT16=
EXTT17=
EXTT18=
PLAYORDER=
